<?xml version="1.0" encoding="UTF-8" standalone="no"?>
<!DOCTYPE svg PUBLIC "-//W3C//DTD SVG 1.1//EN" "http://www.w3.org/Graphics/SVG/1.1/DTD/svg11.dtd">
<svg width="100%" height="100%" viewBox="0 0 187 94" version="1.1" xmlns="http://www.w3.org/2000/svg" xmlns:xlink="http://www.w3.org/1999/xlink" xml:space="preserve" xmlns:serif="http://www.serif.com/" style="fill-rule:evenodd;clip-rule:evenodd;stroke-linejoin:round;stroke-miterlimit:1.41421;">
    <g transform="matrix(1,0,0,1,-56.8993,-297.341)">
        <g transform="matrix(0.373209,0,0,0.373209,19.7122,271.106)">
            <g transform="matrix(2.67946,0,0,2.67946,-52.818,-726.42)">
                <path d="M232.175,390.643L140.137,390.643L70.714,390.643L70.714,390.624L56.899,390.604L117.693,297.341L150.195,307.756L182.698,297.341L243.504,390.624L232.175,390.64L232.175,390.643ZM191.344,331.881L178.34,311.931L150.195,320.085L122.05,311.931L78.406,378.885L133.831,378.885L133.831,378.878L143.754,378.878C147.26,378.723 150.052,376.153 150.052,373.01C150.052,369.767 147.08,367.135 143.419,367.135L143.419,367.133C132.435,367.133 123.518,359.235 123.518,349.507C123.518,339.779 132.435,331.881 143.419,331.881L191.344,331.881ZM199.004,343.631L143.419,343.631L143.419,343.631C139.758,343.631 136.785,346.264 136.785,349.507C136.785,352.749 139.758,355.382 143.419,355.382L143.419,355.384C154.402,355.384 163.32,363.282 163.32,373.01C163.32,375.067 162.921,377.042 162.188,378.878L221.979,378.878L199.004,343.631Z" style="fill:white;"/>
            </g>
        </g>
    </g>
</svg>
